<?xml version="1.0" encoding="utf-8" standalone="no"?>
<!DOCTYPE svg PUBLIC "-//W3C//DTD SVG 1.1//EN"
  "http://www.w3.org/Graphics/SVG/1.1/DTD/svg11.dtd">
<svg xmlns:xlink="http://www.w3.org/1999/xlink" width="432pt" height="288pt" viewBox="0 0 432 288" xmlns="http://www.w3.org/2000/svg" version="1.1">
 <metadata>
  <rdf:RDF xmlns:dc="http://purl.org/dc/elements/1.1/" xmlns:cc="http://creativecommons.org/ns#" xmlns:rdf="http://www.w3.org/1999/02/22-rdf-syntax-ns#">
   <cc:Work>
    <dc:type rdf:resource="http://purl.org/dc/dcmitype/StillImage"/>
    <dc:date>2023-01-11T13:44:03.837237</dc:date>
    <dc:format>image/svg+xml</dc:format>
    <dc:creator>
     <cc:Agent>
      <dc:title>Matplotlib v3.5.1, https://matplotlib.org/</dc:title>
     </cc:Agent>
    </dc:creator>
   </cc:Work>
  </rdf:RDF>
 </metadata>
 <defs>
  <style type="text/css">*{stroke-linejoin: round; stroke-linecap: butt}</style>
 </defs>
 <g id="figure_1">
  <g id="patch_1">
   <path d="M 0 288 
L 432 288 
L 432 0 
L 0 0 
L 0 288 
z
" style="fill: none"/>
  </g>
  <g id="axes_1">
   <g id="patch_2">
    <path d="M 54 252 
L 388.8 252 
L 388.8 34.56 
L 54 34.56 
z
" style="fill: #ffffff"/>
   </g>
   <g id="matplotlib.axis_1">
    <g id="xtick_1">
     <g id="line2d_1">
      <defs>
       <path id="m66247fa014" d="M 0 0 
L 0 3.5 
" style="stroke: #000000; stroke-width: 0.8"/>
      </defs>
      <g>
       <use xlink:href="#m66247fa014" x="54" y="252" style="stroke: #000000; stroke-width: 0.8"/>
      </g>
     </g>
     <g id="text_1">
      <!-- $\mathdefault{0.0}$ -->
      <g transform="translate(46.998462 266.610347)scale(0.11 -0.11)">
       <defs>
        <path id="CMR17-30" d="M 2688 2025 
C 2688 2416 2682 3080 2413 3591 
C 2176 4039 1798 4198 1466 4198 
C 1158 4198 768 4058 525 3597 
C 269 3118 243 2524 243 2025 
C 243 1661 250 1106 448 619 
C 723 -39 1216 -128 1466 -128 
C 1760 -128 2208 -7 2470 600 
C 2662 1042 2688 1559 2688 2025 
z
M 1466 -26 
C 1056 -26 813 325 723 812 
C 653 1188 653 1738 653 2096 
C 653 2588 653 2997 736 3387 
C 858 3929 1216 4096 1466 4096 
C 1728 4096 2067 3923 2189 3400 
C 2272 3036 2278 2607 2278 2096 
C 2278 1680 2278 1169 2202 792 
C 2067 95 1690 -26 1466 -26 
z
" transform="scale(0.015625)"/>
        <path id="CMMI12-3a" d="M 1178 307 
C 1178 492 1024 619 870 619 
C 685 619 557 466 557 313 
C 557 128 710 0 864 0 
C 1050 0 1178 153 1178 307 
z
" transform="scale(0.015625)"/>
       </defs>
       <use xlink:href="#CMR17-30" transform="scale(0.996264)"/>
       <use xlink:href="#CMMI12-3a" transform="translate(45.690477 0)scale(0.996264)"/>
       <use xlink:href="#CMR17-30" transform="translate(72.787654 0)scale(0.996264)"/>
      </g>
     </g>
    </g>
    <g id="xtick_2">
     <g id="line2d_2">
      <g>
       <use xlink:href="#m66247fa014" x="120.96" y="252" style="stroke: #000000; stroke-width: 0.8"/>
      </g>
     </g>
     <g id="text_2">
      <!-- $\mathdefault{0.2}$ -->
      <g transform="translate(113.958462 266.610347)scale(0.11 -0.11)">
       <defs>
        <path id="CMR17-32" d="M 2669 989 
L 2554 989 
C 2490 536 2438 459 2413 420 
C 2381 369 1920 369 1830 369 
L 602 369 
C 832 619 1280 1072 1824 1597 
C 2214 1967 2669 2402 2669 3035 
C 2669 3790 2067 4224 1395 4224 
C 691 4224 262 3604 262 3030 
C 262 2780 448 2748 525 2748 
C 589 2748 781 2787 781 3010 
C 781 3207 614 3264 525 3264 
C 486 3264 448 3258 422 3245 
C 544 3790 915 4058 1306 4058 
C 1862 4058 2227 3617 2227 3035 
C 2227 2479 1901 2000 1536 1584 
L 262 146 
L 262 0 
L 2515 0 
L 2669 989 
z
" transform="scale(0.015625)"/>
       </defs>
       <use xlink:href="#CMR17-30" transform="scale(0.996264)"/>
       <use xlink:href="#CMMI12-3a" transform="translate(45.690477 0)scale(0.996264)"/>
       <use xlink:href="#CMR17-32" transform="translate(72.787654 0)scale(0.996264)"/>
      </g>
     </g>
    </g>
    <g id="xtick_3">
     <g id="line2d_3">
      <g>
       <use xlink:href="#m66247fa014" x="187.92" y="252" style="stroke: #000000; stroke-width: 0.8"/>
      </g>
     </g>
     <g id="text_3">
      <!-- $\mathdefault{0.4}$ -->
      <g transform="translate(180.918462 266.610347)scale(0.11 -0.11)">
       <defs>
        <path id="CMR17-34" d="M 2150 4122 
C 2150 4256 2144 4256 2029 4256 
L 128 1254 
L 128 1088 
L 1779 1088 
L 1779 457 
C 1779 224 1766 160 1318 160 
L 1197 160 
L 1197 0 
C 1402 0 1747 0 1965 0 
C 2182 0 2528 0 2733 0 
L 2733 160 
L 2611 160 
C 2163 160 2150 224 2150 457 
L 2150 1088 
L 2803 1088 
L 2803 1254 
L 2150 1254 
L 2150 4122 
z
M 1798 3703 
L 1798 1254 
L 256 1254 
L 1798 3703 
z
" transform="scale(0.015625)"/>
       </defs>
       <use xlink:href="#CMR17-30" transform="scale(0.996264)"/>
       <use xlink:href="#CMMI12-3a" transform="translate(45.690477 0)scale(0.996264)"/>
       <use xlink:href="#CMR17-34" transform="translate(72.787654 0)scale(0.996264)"/>
      </g>
     </g>
    </g>
    <g id="xtick_4">
     <g id="line2d_4">
      <g>
       <use xlink:href="#m66247fa014" x="254.88" y="252" style="stroke: #000000; stroke-width: 0.8"/>
      </g>
     </g>
     <g id="text_4">
      <!-- $\mathdefault{0.6}$ -->
      <g transform="translate(247.878462 266.610347)scale(0.11 -0.11)">
       <defs>
        <path id="CMR17-36" d="M 678 2176 
C 678 3690 1395 4032 1811 4032 
C 1946 4032 2272 4009 2400 3776 
C 2298 3776 2106 3776 2106 3553 
C 2106 3381 2246 3323 2336 3323 
C 2394 3323 2566 3348 2566 3560 
C 2566 3954 2246 4179 1805 4179 
C 1043 4179 243 3390 243 1984 
C 243 253 966 -128 1478 -128 
C 2099 -128 2688 427 2688 1283 
C 2688 2081 2170 2662 1517 2662 
C 1126 2662 838 2407 678 1960 
L 678 2176 
z
M 1478 25 
C 691 25 691 1200 691 1436 
C 691 1896 909 2560 1504 2560 
C 1613 2560 1926 2560 2138 2120 
C 2253 1870 2253 1609 2253 1289 
C 2253 944 2253 690 2118 434 
C 1978 171 1773 25 1478 25 
z
" transform="scale(0.015625)"/>
       </defs>
       <use xlink:href="#CMR17-30" transform="scale(0.996264)"/>
       <use xlink:href="#CMMI12-3a" transform="translate(45.690477 0)scale(0.996264)"/>
       <use xlink:href="#CMR17-36" transform="translate(72.787654 0)scale(0.996264)"/>
      </g>
     </g>
    </g>
    <g id="xtick_5">
     <g id="line2d_5">
      <g>
       <use xlink:href="#m66247fa014" x="321.84" y="252" style="stroke: #000000; stroke-width: 0.8"/>
      </g>
     </g>
     <g id="text_5">
      <!-- $\mathdefault{0.8}$ -->
      <g transform="translate(314.838462 266.610347)scale(0.11 -0.11)">
       <defs>
        <path id="CMR17-38" d="M 1741 2264 
C 2144 2467 2554 2773 2554 3263 
C 2554 3841 1990 4179 1472 4179 
C 890 4179 378 3759 378 3180 
C 378 3021 416 2747 666 2505 
C 730 2442 998 2251 1171 2130 
C 883 1983 211 1634 211 934 
C 211 279 838 -128 1459 -128 
C 2144 -128 2720 362 2720 1010 
C 2720 1590 2330 1857 2074 2029 
L 1741 2264 
z
M 902 2822 
C 851 2854 595 3051 595 3351 
C 595 3739 998 4032 1459 4032 
C 1965 4032 2336 3676 2336 3262 
C 2336 2669 1670 2331 1638 2331 
C 1632 2331 1626 2331 1574 2370 
L 902 2822 
z
M 2080 1519 
C 2176 1449 2483 1240 2483 851 
C 2483 381 2010 25 1472 25 
C 890 25 448 438 448 940 
C 448 1443 838 1862 1280 2060 
L 2080 1519 
z
" transform="scale(0.015625)"/>
       </defs>
       <use xlink:href="#CMR17-30" transform="scale(0.996264)"/>
       <use xlink:href="#CMMI12-3a" transform="translate(45.690477 0)scale(0.996264)"/>
       <use xlink:href="#CMR17-38" transform="translate(72.787654 0)scale(0.996264)"/>
      </g>
     </g>
    </g>
    <g id="xtick_6">
     <g id="line2d_6">
      <g>
       <use xlink:href="#m66247fa014" x="388.8" y="252" style="stroke: #000000; stroke-width: 0.8"/>
      </g>
     </g>
     <g id="text_6">
      <!-- $\mathdefault{1.0}$ -->
      <g transform="translate(381.798462 266.610347)scale(0.11 -0.11)">
       <defs>
        <path id="CMR17-31" d="M 1702 4058 
C 1702 4192 1696 4192 1606 4192 
C 1357 3916 979 3827 621 3827 
C 602 3827 570 3827 563 3808 
C 557 3795 557 3782 557 3648 
C 755 3648 1088 3686 1344 3839 
L 1344 461 
C 1344 236 1331 160 781 160 
L 589 160 
L 589 0 
C 896 0 1216 0 1523 0 
C 1830 0 2150 0 2458 0 
L 2458 160 
L 2266 160 
C 1715 160 1702 230 1702 458 
L 1702 4058 
z
" transform="scale(0.015625)"/>
       </defs>
       <use xlink:href="#CMR17-31" transform="scale(0.996264)"/>
       <use xlink:href="#CMMI12-3a" transform="translate(45.690477 0)scale(0.996264)"/>
       <use xlink:href="#CMR17-30" transform="translate(72.787654 0)scale(0.996264)"/>
      </g>
     </g>
    </g>
   </g>
   <g id="matplotlib.axis_2">
    <g id="ytick_1">
     <g id="line2d_7">
      <defs>
       <path id="mb111d6348c" d="M 0 0 
L -3.5 0 
" style="stroke: #000000; stroke-width: 0.8"/>
      </defs>
      <g>
       <use xlink:href="#mb111d6348c" x="54" y="252" style="stroke: #000000; stroke-width: 0.8"/>
      </g>
     </g>
     <g id="text_7">
      <!-- $\mathdefault{0}$ -->
      <g transform="translate(41.520533 255.805173)scale(0.11 -0.11)">
       <use xlink:href="#CMR17-30" transform="scale(0.996264)"/>
      </g>
     </g>
    </g>
    <g id="ytick_2">
     <g id="line2d_8">
      <g>
       <use xlink:href="#mb111d6348c" x="54" y="206.583223" style="stroke: #000000; stroke-width: 0.8"/>
      </g>
     </g>
     <g id="text_8">
      <!-- $\mathdefault{2}$ -->
      <g transform="translate(41.520533 210.388396)scale(0.11 -0.11)">
       <use xlink:href="#CMR17-32" transform="scale(0.996264)"/>
      </g>
     </g>
    </g>
    <g id="ytick_3">
     <g id="line2d_9">
      <g>
       <use xlink:href="#mb111d6348c" x="54" y="161.166446" style="stroke: #000000; stroke-width: 0.8"/>
      </g>
     </g>
     <g id="text_9">
      <!-- $\mathdefault{4}$ -->
      <g transform="translate(41.520533 164.971619)scale(0.11 -0.11)">
       <use xlink:href="#CMR17-34" transform="scale(0.996264)"/>
      </g>
     </g>
    </g>
    <g id="ytick_4">
     <g id="line2d_10">
      <g>
       <use xlink:href="#mb111d6348c" x="54" y="115.749669" style="stroke: #000000; stroke-width: 0.8"/>
      </g>
     </g>
     <g id="text_10">
      <!-- $\mathdefault{6}$ -->
      <g transform="translate(41.520533 119.554842)scale(0.11 -0.11)">
       <use xlink:href="#CMR17-36" transform="scale(0.996264)"/>
      </g>
     </g>
    </g>
    <g id="ytick_5">
     <g id="line2d_11">
      <g>
       <use xlink:href="#mb111d6348c" x="54" y="70.332892" style="stroke: #000000; stroke-width: 0.8"/>
      </g>
     </g>
     <g id="text_11">
      <!-- $\mathdefault{8}$ -->
      <g transform="translate(41.520533 74.138066)scale(0.11 -0.11)">
       <use xlink:href="#CMR17-38" transform="scale(0.996264)"/>
      </g>
     </g>
    </g>
    <g id="text_12">
     <!-- Density -->
     <g transform="translate(35.389638 161.499215)rotate(-90)scale(0.11 -0.11)">
      <defs>
       <path id="CMR17-44" d="M 333 4352 
L 333 4186 
C 774 4186 845 4186 845 3900 
L 845 452 
C 845 166 774 166 333 166 
L 333 0 
L 2368 0 
C 3398 0 4224 943 4224 2141 
C 4224 3346 3411 4352 2368 4352 
L 333 4352 
z
M 1523 166 
C 1267 166 1254 197 1254 414 
L 1254 3938 
C 1254 4155 1267 4186 1523 4186 
L 2240 4186 
C 2771 4186 3750 3874 3750 2141 
C 3750 1242 3488 879 3366 707 
C 3213 510 2848 166 2240 166 
L 1523 166 
z
" transform="scale(0.015625)"/>
       <path id="CMR17-65" d="M 2438 1472 
C 2464 1498 2464 1511 2464 1576 
C 2464 2238 2118 2816 1389 2816 
C 710 2816 173 2169 173 1383 
C 173 551 781 -64 1459 -64 
C 2176 -64 2458 607 2458 740 
C 2458 784 2419 784 2406 784 
C 2362 784 2355 771 2330 696 
C 2189 265 1837 51 1504 51 
C 1229 51 954 203 781 480 
C 582 803 582 1176 582 1472 
L 2438 1472 
z
M 589 1568 
C 634 2505 1126 2714 1382 2714 
C 1818 2714 2112 2297 2118 1568 
L 589 1568 
z
" transform="scale(0.015625)"/>
       <path id="CMR17-6e" d="M 2656 1933 
C 2656 2259 2592 2790 1837 2790 
C 1331 2790 1069 2400 973 2144 
L 966 2144 
L 966 2790 
L 211 2720 
L 211 2554 
C 589 2554 646 2515 646 2208 
L 646 428 
C 646 184 621 153 211 153 
L 211 -13 
C 365 0 646 0 813 0 
C 979 0 1267 0 1421 -13 
L 1421 153 
C 1011 153 986 178 986 428 
L 986 1658 
C 986 2247 1344 2688 1792 2688 
C 2266 2688 2317 2266 2317 1958 
L 2317 428 
C 2317 184 2291 153 1882 153 
L 1882 -13 
C 2035 0 2317 0 2483 0 
C 2650 0 2938 0 3091 -13 
L 3091 153 
C 2682 153 2656 178 2656 428 
L 2656 1933 
z
" transform="scale(0.015625)"/>
       <path id="CMR17-73" d="M 1978 2697 
C 1978 2813 1971 2819 1933 2819 
C 1907 2819 1901 2813 1824 2717 
C 1805 2691 1747 2626 1728 2601 
C 1523 2819 1235 2819 1126 2819 
C 416 2819 160 2447 160 2076 
C 160 1498 813 1365 998 1325 
C 1402 1243 1542 1217 1677 1101 
C 1760 1025 1901 884 1901 654 
C 1901 384 1747 38 1158 38 
C 602 38 403 460 288 1021 
C 269 1110 269 1117 218 1117 
C 166 1117 160 1110 160 983 
L 160 63 
C 160 -51 166 -58 205 -58 
C 237 -58 243 -51 275 0 
C 314 57 410 211 448 276 
C 576 103 800 -64 1158 -64 
C 1792 -64 2131 283 2131 784 
C 2131 1112 1958 1285 1875 1362 
C 1683 1561 1459 1606 1190 1657 
C 838 1735 390 1825 390 2217 
C 390 2383 480 2737 1126 2737 
C 1811 2737 1850 2094 1862 1888 
C 1869 1856 1901 1849 1920 1849 
C 1978 1849 1978 1869 1978 1978 
L 1978 2697 
z
" transform="scale(0.015625)"/>
       <path id="CMR17-69" d="M 992 3909 
C 992 4049 877 4170 730 4170 
C 589 4170 467 4056 467 3909 
C 467 3769 582 3648 730 3648 
C 870 3648 992 3763 992 3909 
z
M 243 2706 
L 243 2541 
C 602 2541 653 2502 653 2197 
L 653 427 
C 653 184 627 153 218 153 
L 218 -13 
C 371 0 646 0 806 0 
C 960 0 1222 0 1370 -13 
L 1370 153 
C 992 153 979 191 979 420 
L 979 2776 
L 243 2706 
z
" transform="scale(0.015625)"/>
       <path id="CMR17-74" d="M 966 2560 
L 1862 2560 
L 1862 2725 
L 966 2725 
L 966 3904 
L 851 3904 
C 838 3245 614 2668 70 2668 
L 70 2560 
L 627 2560 
L 627 771 
C 627 650 627 -64 1370 -64 
C 1747 -64 1965 306 1965 777 
L 1965 1140 
L 1850 1140 
L 1850 783 
C 1850 344 1677 51 1408 51 
C 1222 51 966 178 966 758 
L 966 2560 
z
" transform="scale(0.015625)"/>
       <path id="CMR17-79" d="M 2496 2197 
C 2656 2586 2944 2586 3034 2586 
L 3034 2752 
C 2912 2752 2752 2752 2630 2752 
C 2496 2752 2285 2752 2157 2758 
L 2157 2592 
C 2400 2573 2406 2394 2406 2343 
C 2406 2280 2394 2248 2362 2171 
L 1664 449 
L 902 2306 
C 870 2382 870 2426 870 2433 
C 870 2573 1018 2586 1171 2586 
L 1171 2758 
C 1018 2752 742 2752 582 2752 
C 410 2752 205 2752 64 2758 
L 64 2586 
C 410 2586 448 2554 531 2350 
L 1485 15 
C 1197 -738 1030 -1178 627 -1178 
C 557 -1178 397 -1159 282 -1044 
C 429 -1031 493 -942 493 -833 
C 493 -725 416 -629 288 -629 
C 147 -629 77 -725 77 -840 
C 77 -1095 339 -1280 627 -1280 
C 998 -1280 1229 -922 1357 -604 
L 2496 2197 
z
" transform="scale(0.015625)"/>
      </defs>
      <use xlink:href="#CMR17-44" transform="scale(0.996264)"/>
      <use xlink:href="#CMR17-65" transform="translate(70.393556 0)scale(0.996264)"/>
      <use xlink:href="#CMR17-6e" transform="translate(110.879216 0)scale(0.996264)"/>
      <use xlink:href="#CMR17-73" transform="translate(161.774586 0)scale(0.996264)"/>
      <use xlink:href="#CMR17-69" transform="translate(197.575924 0)scale(0.996264)"/>
      <use xlink:href="#CMR17-74" transform="translate(222.446982 0)scale(0.996264)"/>
      <use xlink:href="#CMR17-79" transform="translate(255.125296 0)scale(0.996264)"/>
     </g>
    </g>
   </g>
   <g id="line2d_12">
    <path d="M -1 252 
L 84.614595 251.969392 
L 85.217838 251.65213 
L 85.821081 249.768323 
L 86.424324 243.918875 
L 87.027568 235.482712 
L 87.630811 232.943983 
L 88.837297 247.438361 
L 89.440541 251.047083 
L 90.043784 251.788268 
L 90.647027 251.111948 
L 91.25027 247.660416 
L 92.456757 233.056501 
L 93.06 235.215065 
L 93.663243 243.605293 
L 94.266486 249.630166 
L 94.86973 251.622378 
L 95.472973 251.966036 
L 97.885946 252 
L 102.711892 251.958284 
L 103.315135 251.556153 
L 103.918378 249.334438 
L 104.521622 242.964113 
L 105.124865 234.710627 
L 105.728108 233.326956 
L 106.934595 248.052304 
L 107.537838 250.891317 
L 108.141081 249.684913 
L 108.744324 243.913713 
L 109.347568 235.482532 
L 109.950811 232.94398 
L 111.157297 247.438599 
L 111.760541 251.053608 
L 112.363784 251.889167 
L 113.57027 251.999727 
L 121.412432 251.988306 
L 122.015676 251.83812 
L 122.618919 250.730762 
L 123.222162 246.31902 
L 124.428649 227.654124 
L 125.031892 223.633448 
L 125.635135 225.925565 
L 126.238378 234.275864 
L 126.841622 244.241187 
L 127.444865 249.988158 
L 128.048108 251.689464 
L 128.651351 251.791249 
L 129.254595 250.360954 
L 129.857838 243.750884 
L 131.064324 214.368557 
L 131.667568 217.915012 
L 132.270811 234.573833 
L 132.874054 246.971168 
L 133.477297 251.180843 
L 134.080541 251.92403 
L 134.683784 251.980846 
L 135.287027 251.799989 
L 135.89027 250.520505 
L 136.493514 245.819171 
L 137.096757 237.425051 
L 137.7 232.600354 
L 138.303243 237.425051 
L 138.906486 245.819165 
L 139.50973 250.520234 
L 140.112973 251.792777 
L 140.716216 251.873922 
L 141.319459 251.052952 
L 141.922703 247.438583 
L 143.129189 232.943983 
L 143.732432 235.482712 
L 144.335676 243.918875 
L 144.938919 249.768322 
L 145.542162 251.652065 
L 146.145405 251.966992 
L 146.748649 251.948131 
L 147.351892 251.403714 
L 147.955135 248.010871 
L 148.558378 236.869147 
L 149.161622 218.878101 
L 149.764865 206.277967 
L 150.368108 197.620721 
L 151.574595 156.875358 
L 152.177838 175.059561 
L 152.781081 215.212103 
L 153.384324 241.826252 
L 153.987568 250.066381 
L 154.590811 249.32904 
L 155.194054 240.278769 
L 155.797297 217.950495 
L 156.400541 189.412103 
L 157.003784 179.789406 
L 158.21027 219.918758 
L 158.813514 228.333155 
L 159.416757 234.33645 
L 160.02 241.982913 
L 160.623243 243.278669 
L 161.226486 236.867702 
L 161.82973 232.567616 
L 162.432973 237.578701 
L 163.036216 245.635375 
L 163.639459 247.734324 
L 164.242703 238.125251 
L 165.449189 194.764723 
L 166.052432 201.808555 
L 166.655676 224.287329 
L 167.258919 234.627538 
L 167.862162 231.901798 
L 168.465405 230.047305 
L 169.068649 229.523458 
L 169.671892 222.695352 
L 170.275135 208.05 
L 170.878378 189.028547 
L 171.481622 180.080228 
L 172.084865 191.913189 
L 172.688108 211.003138 
L 173.291351 221.368031 
L 173.894595 222.964267 
L 174.497838 215.705863 
L 175.101081 200.757375 
L 175.704324 193.522172 
L 176.307568 198.873786 
L 176.910811 203.030743 
L 177.514054 205.762788 
L 178.117297 209.211731 
L 179.323784 194.879643 
L 179.927027 206.89238 
L 180.53027 230.140966 
L 181.133514 243.640453 
L 181.736757 242.640878 
L 182.34 235.126118 
L 182.943243 233.051826 
L 184.14973 247.659867 
L 184.752973 251.097281 
L 185.356216 251.56603 
L 185.959459 249.140721 
L 186.562703 238.13336 
L 187.769189 188.932419 
L 188.372432 188.210682 
L 189.578919 230.060079 
L 190.182162 242.185572 
L 190.785405 240.854911 
L 191.388649 226.488359 
L 192.595135 178.73495 
L 193.198378 166.941474 
L 193.801622 179.048744 
L 195.008108 233.580204 
L 195.611351 245.906691 
L 196.214595 245.748415 
L 196.817838 238.256319 
L 197.421081 232.633299 
L 198.024324 236.201623 
L 198.627568 242.341369 
L 199.230811 238.616685 
L 199.834054 223.506165 
L 200.437297 213.198781 
L 201.040541 221.767387 
L 201.643784 237.425767 
L 202.247027 242.700469 
L 203.453514 232.510634 
L 204.056757 236.716864 
L 204.66 242.540914 
L 205.263243 240.362743 
L 205.866486 232.825172 
L 207.072973 224.884317 
L 207.676216 214.767641 
L 208.279459 202.016129 
L 208.882703 192.911683 
L 209.485946 191.024169 
L 210.089189 201.536492 
L 211.295676 239.895021 
L 211.898919 246.143323 
L 212.502162 241.719879 
L 213.105405 234.094435 
L 213.708649 233.732033 
L 214.311892 241.16811 
L 214.915135 246.287476 
L 215.518378 241.839704 
L 216.724865 216.710216 
L 217.328108 219.75368 
L 218.534595 245.921718 
L 219.137838 250.110819 
L 219.741081 247.398708 
L 220.344324 235.828569 
L 220.947568 218.965075 
L 221.550811 213.887959 
L 222.757297 242.87682 
L 223.360541 250.097613 
L 223.963784 251.640418 
L 224.567027 250.867293 
L 225.17027 246.881188 
L 225.773514 238.734766 
L 226.376757 232.169939 
L 226.98 232.642137 
L 227.583243 231.879322 
L 228.78973 211.615203 
L 229.392973 211.093969 
L 230.599459 222.429659 
L 231.202703 225.713256 
L 231.805946 229.954382 
L 232.409189 236.739974 
L 233.012432 236.412518 
L 233.615676 223.551896 
L 234.218919 213.194356 
L 234.822162 221.262 
L 235.425405 238.045659 
L 236.028649 247.080045 
L 236.631892 245.343886 
L 238.441622 219.293469 
L 239.044865 207.744885 
L 239.648108 198.603564 
L 240.251351 206.611056 
L 240.854595 227.712825 
L 241.457838 243.273347 
L 242.061081 244.621785 
L 242.664324 232.624962 
L 243.267568 216.224303 
L 243.870811 211.662221 
L 245.077297 225.874443 
L 245.680541 231.468817 
L 246.283784 234.421109 
L 246.887027 225.902572 
L 247.49027 211.592019 
L 248.093514 205.396633 
L 248.696757 204.409732 
L 249.3 205.396936 
L 252.316216 247.354357 
L 252.919459 249.162827 
L 253.522703 242.284648 
L 254.729189 204.449649 
L 255.332432 201.387975 
L 255.935676 217.355526 
L 256.538919 236.495636 
L 257.142162 246.880958 
L 257.745405 246.924979 
L 258.348649 236.741828 
L 259.555135 201.165792 
L 260.158378 200.247173 
L 260.761622 211.825998 
L 261.364865 220.821357 
L 261.968108 222.061771 
L 262.571351 215.830095 
L 263.174595 210.752851 
L 263.777838 220.399057 
L 264.381081 237.761857 
L 264.984324 248.347463 
L 265.587568 251.469594 
L 266.190811 251.942836 
L 266.794054 251.813488 
L 267.397297 250.598629 
L 268.000541 245.902197 
L 268.603784 236.194668 
L 270.413514 201.908509 
L 271.016757 200.07663 
L 272.223243 218.423742 
L 272.826486 223.91856 
L 273.42973 226.712217 
L 274.032973 222.389046 
L 274.636216 213.737854 
L 275.239459 212.965586 
L 275.842703 210.170769 
L 277.049189 155.533256 
L 277.652432 169.246409 
L 278.255676 211.178351 
L 278.858919 238.197713 
L 279.462162 240.025789 
L 280.065405 226.759845 
L 280.668649 209.625411 
L 281.271892 197.790166 
L 281.875135 191.603326 
L 282.478378 183.920818 
L 283.081622 181.161031 
L 283.684865 194.672058 
L 284.288108 216.047587 
L 284.891351 231.943791 
L 285.494595 236.008493 
L 286.097838 232.618707 
L 286.701081 233.993555 
L 287.304324 241.642794 
L 287.907568 245.840444 
L 288.510811 241.123238 
L 289.114054 231.199138 
L 289.717297 224.209193 
L 290.320541 223.742506 
L 291.527027 235.468806 
L 292.13027 230.598609 
L 292.733514 214.920552 
L 293.336757 205.698196 
L 293.94 210.380941 
L 294.543243 219.118033 
L 295.146486 224.14984 
L 296.352973 228.838589 
L 296.956216 229.616262 
L 297.559459 230.94462 
L 298.765946 244.454243 
L 299.369189 240.659747 
L 300.575676 205.179256 
L 301.178919 202.08602 
L 302.385405 223.441049 
L 302.988649 226.840541 
L 303.591892 227.87758 
L 304.195135 223.229297 
L 304.798378 213.462728 
L 305.401622 214.680046 
L 306.004865 227.408268 
L 306.608108 233.691816 
L 307.211351 231.815427 
L 307.814595 233.546636 
L 308.417838 237.271076 
L 309.021081 233.001328 
L 310.227568 208.572463 
L 310.830811 192.841002 
L 311.434054 180.579543 
L 312.037297 183.407326 
L 313.243784 209.95088 
L 315.053514 245.345741 
L 315.656757 250.470927 
L 316.26 251.635872 
L 316.863243 250.713718 
L 317.466486 246.417449 
L 318.06973 238.163706 
L 318.672973 232.62772 
L 319.276216 236.487424 
L 319.879459 243.224335 
L 320.482703 240.465031 
L 321.085946 222.780893 
L 321.689189 198.994169 
L 322.292432 185.766126 
L 322.895676 187.307775 
L 323.498919 198.065403 
L 324.102162 211.605904 
L 324.705405 221.208932 
L 325.308649 227.192027 
L 325.911892 229.789094 
L 326.515135 226.292411 
L 327.118378 221.855203 
L 327.721622 223.217003 
L 328.324865 231.741745 
L 328.928108 242.617446 
L 329.531351 249.374675 
L 330.134595 251.544521 
L 330.737838 251.612942 
L 331.341081 249.766276 
L 331.944324 243.918814 
L 332.547568 235.482684 
L 333.150811 232.942871 
L 334.357297 247.067484 
L 334.960541 248.035966 
L 335.563784 237.433683 
L 336.77027 182.426193 
L 337.373514 180.883714 
L 337.976757 204.572335 
L 338.58 222.98582 
L 339.183243 228.094432 
L 339.786486 230.413614 
L 340.992973 231.047836 
L 341.596216 237.401116 
L 342.199459 245.105841 
L 342.802703 246.046824 
L 344.009189 232.926704 
L 344.612432 235.421002 
L 345.215676 243.317467 
L 345.818919 246.388487 
L 346.422162 240.50091 
L 347.628649 216.182411 
L 348.231892 207.518036 
L 348.835135 211.339278 
L 350.041622 243.941745 
L 350.644865 250.384415 
L 351.248108 251.306152 
L 351.851351 248.507038 
L 352.454595 238.26845 
L 353.661081 196.131454 
L 354.867568 154.879004 
L 355.470811 161.067234 
L 356.074054 195.573202 
L 356.677297 221.571385 
L 357.280541 216.49252 
L 357.883784 196.897855 
L 358.487027 190.221547 
L 359.693514 210.429379 
L 360.296757 209.840081 
L 360.9 208.944177 
L 361.503243 218.898446 
L 362.106486 225.211147 
L 362.70973 212.068556 
L 363.312973 195.315771 
L 363.916216 198.53604 
L 364.519459 210.784809 
L 365.122703 211.80294 
L 365.725946 211.60432 
L 366.329189 218.169624 
L 366.932432 213.653574 
L 367.535676 196.801322 
L 368.138919 196.648446 
L 369.345405 241.276039 
L 369.948649 249.175838 
L 370.551892 246.750794 
L 371.155135 234.623808 
L 371.758378 217.043458 
L 372.361622 208.421055 
L 372.964865 212.407618 
L 373.568108 217.227921 
L 374.171351 216.087772 
L 374.774595 211.974815 
L 375.377838 215.45649 
L 376.584324 241.885264 
L 377.187568 243.260368 
L 377.790811 236.415201 
L 378.394054 232.63047 
L 378.997297 238.219788 
L 379.600541 246.461569 
L 380.203784 250.743487 
L 380.807027 251.839029 
L 381.41027 251.986204 
L 382.013514 251.958265 
L 382.616757 251.552633 
L 383.22 249.212901 
L 383.823243 241.815236 
L 384.426486 229.338272 
L 385.02973 219.655673 
L 385.632973 221.027368 
L 386.236216 230.504733 
L 386.839459 230.197403 
L 387.442703 192.091497 
L 388.045946 108.58261 
L 388.649189 44.914286 
L 389.252432 78.759628 
L 389.855676 168.963377 
L 390.458919 229.336702 
L 391.062162 248.490839 
L 391.665405 251.692413 
L 392.268649 251.984757 
L 397.094595 252 
L 433 252 
L 433 252 
" clip-path="url(#p7710d928d9)" style="fill: none; stroke: #1f77b4; stroke-width: 1.5; stroke-linecap: square"/>
   </g>
   <g id="patch_3">
    <path d="M 54 252 
L 54 34.56 
" style="fill: none; stroke: #000000; stroke-width: 0.8; stroke-linejoin: miter; stroke-linecap: square"/>
   </g>
   <g id="patch_4">
    <path d="M 388.8 252 
L 388.8 34.56 
" style="fill: none; stroke: #000000; stroke-width: 0.8; stroke-linejoin: miter; stroke-linecap: square"/>
   </g>
   <g id="patch_5">
    <path d="M 54 252 
L 388.8 252 
" style="fill: none; stroke: #000000; stroke-width: 0.8; stroke-linejoin: miter; stroke-linecap: square"/>
   </g>
   <g id="patch_6">
    <path d="M 54 34.56 
L 388.8 34.56 
" style="fill: none; stroke: #000000; stroke-width: 0.8; stroke-linejoin: miter; stroke-linecap: square"/>
   </g>
   <g id="text_13">
    <!-- Distribution of issue close rate: (! repos with &lt; 10 issue) -->
    <g transform="translate(63.860228 28.56)scale(0.132 -0.132)">
     <defs>
      <path id="CMR17-72" d="M 960 1497 
C 960 2112 1222 2688 1702 2688 
C 1747 2688 1792 2682 1837 2662 
C 1837 2662 1696 2617 1696 2452 
C 1696 2298 1818 2234 1914 2234 
C 1990 2234 2131 2279 2131 2458 
C 2131 2663 1926 2790 1709 2790 
C 1222 2790 1011 2317 947 2093 
L 941 2093 
L 941 2790 
L 198 2720 
L 198 2554 
C 576 2554 634 2515 634 2208 
L 634 428 
C 634 184 608 153 198 153 
L 198 -13 
C 352 0 646 0 813 0 
C 998 0 1325 0 1498 -13 
L 1498 153 
C 1037 153 960 153 960 440 
L 960 1497 
z
" transform="scale(0.015625)"/>
      <path id="CMR17-62" d="M 960 4396 
L 198 4326 
L 198 4160 
C 576 4160 634 4122 634 3817 
L 634 -13 
L 749 -13 
L 934 441 
C 1120 141 1395 -64 1766 -64 
C 2406 -64 3053 500 3053 1370 
C 3053 2188 2477 2790 1830 2790 
C 1434 2790 1152 2579 960 2330 
L 960 4396 
z
M 973 2004 
C 973 2118 973 2138 1062 2272 
C 1312 2657 1670 2688 1792 2688 
C 1984 2688 2643 2585 2643 1376 
C 2643 108 1888 38 1734 38 
C 1536 38 1248 114 1043 486 
C 973 608 973 621 973 735 
L 973 2004 
z
" transform="scale(0.015625)"/>
      <path id="CMR17-75" d="M 1882 2693 
L 1882 2528 
C 2259 2528 2317 2489 2317 2186 
L 2317 1032 
C 2317 500 2029 38 1555 38 
C 1030 38 986 348 986 678 
L 986 2763 
L 211 2693 
L 211 2528 
C 467 2528 640 2528 646 2274 
L 646 1058 
C 646 633 646 361 813 183 
C 896 101 1056 -64 1517 -64 
C 2061 -64 2272 377 2323 506 
L 2330 506 
L 2330 -63 
L 3091 -63 
L 3091 128 
C 2714 128 2656 166 2656 473 
L 2656 2763 
L 1882 2693 
z
" transform="scale(0.015625)"/>
      <path id="CMR17-6f" d="M 2758 1356 
C 2758 2176 2163 2816 1466 2816 
C 768 2816 173 2176 173 1356 
C 173 551 768 -64 1466 -64 
C 2163 -64 2758 551 2758 1356 
z
M 1466 51 
C 1165 51 909 230 762 480 
C 602 767 582 1126 582 1408 
C 582 1677 595 2010 762 2298 
C 890 2509 1139 2714 1466 2714 
C 1754 2714 1997 2554 2150 2330 
C 2349 2029 2349 1607 2349 1408 
C 2349 1158 2336 775 2163 467 
C 1984 173 1709 51 1466 51 
z
" transform="scale(0.015625)"/>
      <path id="CMR17-66" d="M 979 2560 
L 1709 2560 
L 1709 2725 
L 966 2725 
L 966 3494 
C 966 4022 1235 4352 1510 4352 
C 1594 4352 1690 4327 1754 4282 
C 1702 4269 1568 4225 1568 4067 
C 1568 3901 1696 3850 1786 3850 
C 1875 3850 2003 3901 2003 4067 
C 2003 4308 1773 4454 1517 4454 
C 1152 4454 653 4156 653 3481 
L 653 2725 
L 141 2725 
L 141 2560 
L 653 2560 
L 653 427 
C 653 184 627 153 218 153 
L 218 -13 
C 371 0 666 0 832 0 
C 1018 0 1344 0 1517 -13 
L 1517 153 
C 1056 153 979 153 979 439 
L 979 2560 
z
" transform="scale(0.015625)"/>
      <path id="CMR17-63" d="M 2234 2240 
C 2112 2240 1933 2240 1933 2017 
C 1933 1838 2080 1787 2163 1787 
C 2208 1787 2394 1807 2394 2024 
C 2394 2467 1958 2803 1466 2803 
C 787 2803 211 2178 211 1363 
C 211 516 813 -64 1466 -64 
C 2259 -64 2458 677 2458 748 
C 2458 774 2451 793 2406 793 
C 2362 793 2355 787 2330 703 
C 2163 180 1798 51 1523 51 
C 1114 51 621 427 621 1369 
C 621 2338 1094 2688 1472 2688 
C 1722 2688 2093 2573 2234 2240 
z
" transform="scale(0.015625)"/>
      <path id="CMR17-6c" d="M 979 4396 
L 218 4326 
L 218 4160 
C 595 4160 653 4122 653 3817 
L 653 426 
C 653 184 627 153 218 153 
L 218 -13 
C 371 0 653 0 813 0 
C 979 0 1261 0 1414 -13 
L 1414 153 
C 1005 153 979 178 979 426 
L 979 4396 
z
" transform="scale(0.015625)"/>
      <path id="CMR17-61" d="M 2304 1653 
C 2304 2072 2304 2294 2035 2543 
C 1798 2752 1523 2816 1306 2816 
C 800 2816 435 2407 435 1971 
C 435 1728 627 1728 666 1728 
C 749 1728 896 1778 896 1954 
C 896 2112 774 2181 666 2181 
C 640 2181 608 2174 589 2168 
C 723 2592 1069 2714 1293 2714 
C 1613 2714 1965 2429 1965 1885 
L 1965 1600 
C 1587 1600 1133 1549 774 1357 
C 371 1133 256 813 256 570 
C 256 77 832 -64 1171 -64 
C 1523 -64 1850 139 1990 511 
C 2003 233 2182 -18 2464 -18 
C 2598 -18 2938 70 2938 567 
L 2938 920 
L 2822 920 
L 2822 562 
C 2822 178 2650 128 2566 128 
C 2304 128 2304 458 2304 738 
L 2304 1653 
z
M 1965 870 
C 1965 317 1568 38 1216 38 
C 896 38 646 275 646 570 
C 646 761 730 1100 1101 1305 
C 1408 1478 1760 1504 1965 1504 
L 1965 870 
z
" transform="scale(0.015625)"/>
      <path id="CMR17-3a" d="M 1062 2491 
C 1062 2650 934 2752 800 2752 
C 672 2752 538 2650 538 2491 
C 538 2332 666 2230 800 2230 
C 928 2230 1062 2332 1062 2491 
z
M 1062 261 
C 1062 420 934 522 800 522 
C 672 522 538 420 538 261 
C 538 102 666 0 800 0 
C 928 0 1062 102 1062 261 
z
" transform="scale(0.015625)"/>
      <path id="CMR17-28" d="M 1958 -1561 
C 1958 -1555 1958 -1542 1939 -1523 
C 1645 -1224 858 -407 858 1581 
C 858 3569 1632 4379 1946 4697 
C 1946 4704 1958 4717 1958 4736 
C 1958 4755 1939 4768 1914 4768 
C 1843 4768 1299 4296 986 3594 
C 666 2887 576 2199 576 1588 
C 576 1128 621 351 1005 -471 
C 1312 -1135 1837 -1600 1914 -1600 
C 1946 -1600 1958 -1587 1958 -1561 
z
" transform="scale(0.015625)"/>
      <path id="CMR17-21" d="M 1062 4259 
C 1062 4442 909 4512 800 4512 
C 691 4512 538 4442 538 4259 
L 736 1202 
C 742 1119 742 1088 800 1088 
C 858 1088 858 1119 864 1201 
L 1062 4259 
z
M 1062 261 
C 1062 401 947 522 800 522 
C 659 522 538 408 538 261 
C 538 121 653 0 800 0 
C 941 0 1062 115 1062 261 
z
" transform="scale(0.015625)"/>
      <path id="CMR17-70" d="M 1408 -1063 
C 998 -1063 973 -1037 973 -789 
L 973 402 
C 1158 134 1427 -38 1766 -38 
C 2406 -38 3053 523 3053 1388 
C 3053 2191 2496 2802 1837 2802 
C 1453 2802 1139 2592 960 2338 
L 960 2802 
L 198 2732 
L 198 2567 
C 576 2567 634 2528 634 2223 
L 634 -789 
C 634 -1031 608 -1063 198 -1063 
L 198 -1228 
C 352 -1216 634 -1216 800 -1216 
C 966 -1216 1254 -1216 1408 -1228 
L 1408 -1063 
z
M 973 2012 
C 973 2102 973 2235 1222 2471 
C 1254 2497 1472 2688 1792 2688 
C 2259 2688 2643 2108 2643 1382 
C 2643 656 2234 64 1728 64 
C 1498 64 1248 172 1056 472 
C 973 612 973 650 973 752 
L 973 2012 
z
" transform="scale(0.015625)"/>
      <path id="CMR17-77" d="M 3725 2183 
C 3853 2560 4109 2560 4205 2560 
L 4205 2732 
C 4077 2732 3949 2732 3821 2732 
C 3699 2732 3424 2732 3315 2738 
L 3315 2560 
C 3514 2560 3622 2445 3622 2286 
C 3622 2241 3610 2184 3597 2140 
L 2995 407 
L 2342 2275 
C 2330 2319 2310 2370 2310 2395 
C 2310 2560 2528 2560 2630 2560 
L 2630 2738 
C 2483 2732 2214 2732 2061 2732 
C 1901 2732 1734 2732 1587 2738 
L 1587 2560 
C 1939 2560 1939 2547 2074 2149 
L 1485 451 
L 851 2281 
C 819 2363 819 2376 819 2395 
C 819 2560 1037 2560 1139 2560 
L 1139 2738 
C 986 2732 717 2732 557 2732 
C 416 2732 198 2732 64 2738 
L 64 2560 
C 346 2560 416 2541 486 2331 
L 1274 49 
C 1299 -33 1318 -52 1370 -52 
C 1414 -52 1440 -39 1472 56 
L 2131 1980 
L 2797 56 
C 2829 -39 2854 -52 2899 -52 
C 2950 -52 2970 -33 2995 50 
L 3725 2183 
z
" transform="scale(0.015625)"/>
      <path id="CMR17-68" d="M 2656 1933 
C 2656 2259 2592 2790 1837 2790 
C 1312 2790 1056 2368 979 2157 
L 973 2157 
L 973 4396 
L 211 4326 
L 211 4160 
C 589 4160 646 4122 646 3817 
L 646 426 
C 646 184 621 153 211 153 
L 211 -13 
C 365 0 646 0 813 0 
C 979 0 1267 0 1421 -13 
L 1421 153 
C 1011 153 986 178 986 428 
L 986 1658 
C 986 2247 1344 2688 1792 2688 
C 2266 2688 2317 2266 2317 1958 
L 2317 428 
C 2317 184 2291 153 1882 153 
L 1882 -13 
C 2035 0 2317 0 2483 0 
C 2650 0 2938 0 3091 -13 
L 3091 153 
C 2682 153 2656 178 2656 428 
L 2656 1933 
z
" transform="scale(0.015625)"/>
      <path id="CMR17-3c" d="M 1062 2949 
C 1062 3089 947 3210 800 3210 
C 659 3210 538 3096 538 2949 
C 538 2809 653 2688 800 2688 
C 941 2688 1062 2803 1062 2949 
z
M 864 2021 
C 858 2103 858 2135 800 2135 
C 742 2135 742 2103 736 2020 
L 538 -1057 
C 538 -1242 691 -1312 800 -1312 
C 909 -1312 1062 -1242 1062 -1058 
L 1056 -1000 
L 864 2021 
z
" transform="scale(0.015625)"/>
      <path id="CMR17-29" d="M 1683 1581 
C 1683 2040 1638 2817 1254 3639 
C 947 4303 422 4768 346 4768 
C 326 4768 301 4761 301 4729 
C 301 4717 307 4710 314 4697 
C 621 4378 1402 3568 1402 1584 
C 1402 -407 627 -1217 314 -1537 
C 307 -1549 301 -1556 301 -1568 
C 301 -1600 326 -1600 346 -1600 
C 416 -1600 960 -1128 1274 -426 
C 1594 281 1683 969 1683 1581 
z
" transform="scale(0.015625)"/>
     </defs>
     <use xlink:href="#CMR17-44" transform="scale(0.996264)"/>
     <use xlink:href="#CMR17-69" transform="translate(70.393556 0)scale(0.996264)"/>
     <use xlink:href="#CMR17-73" transform="translate(95.264614 0)scale(0.996264)"/>
     <use xlink:href="#CMR17-74" transform="translate(131.065952 0)scale(0.996264)"/>
     <use xlink:href="#CMR17-72" transform="translate(166.34672 0)scale(0.996264)"/>
     <use xlink:href="#CMR17-69" transform="translate(201.627488 0)scale(0.996264)"/>
     <use xlink:href="#CMR17-62" transform="translate(226.498546 0)scale(0.996264)"/>
     <use xlink:href="#CMR17-75" transform="translate(277.393916 0)scale(0.996264)"/>
     <use xlink:href="#CMR17-74" transform="translate(328.289286 0)scale(0.996264)"/>
     <use xlink:href="#CMR17-69" transform="translate(363.570053 0)scale(0.996264)"/>
     <use xlink:href="#CMR17-6f" transform="translate(388.441112 0)scale(0.996264)"/>
     <use xlink:href="#CMR17-6e" transform="translate(434.131589 0)scale(0.996264)"/>
     <use xlink:href="#CMR17-6f" transform="translate(515.102925 0)scale(0.996264)"/>
     <use xlink:href="#CMR17-66" transform="translate(560.793402 0)scale(0.996264)"/>
     <use xlink:href="#CMR17-69" transform="translate(618.342881 0)scale(0.996264)"/>
     <use xlink:href="#CMR17-73" transform="translate(643.21394 0)scale(0.996264)"/>
     <use xlink:href="#CMR17-73" transform="translate(679.015277 0)scale(0.996264)"/>
     <use xlink:href="#CMR17-75" transform="translate(714.816615 0)scale(0.996264)"/>
     <use xlink:href="#CMR17-65" transform="translate(765.711985 0)scale(0.996264)"/>
     <use xlink:href="#CMR17-63" transform="translate(836.273611 0)scale(0.996264)"/>
     <use xlink:href="#CMR17-6c" transform="translate(876.759272 0)scale(0.996264)"/>
     <use xlink:href="#CMR17-6f" transform="translate(901.63033 0)scale(0.996264)"/>
     <use xlink:href="#CMR17-73" transform="translate(947.320807 0)scale(0.996264)"/>
     <use xlink:href="#CMR17-65" transform="translate(983.122145 0)scale(0.996264)"/>
     <use xlink:href="#CMR17-72" transform="translate(1053.683772 0)scale(0.996264)"/>
     <use xlink:href="#CMR17-61" transform="translate(1088.96454 0)scale(0.996264)"/>
     <use xlink:href="#CMR17-74" transform="translate(1134.655017 0)scale(0.996264)"/>
     <use xlink:href="#CMR17-65" transform="translate(1169.935785 0)scale(0.996264)"/>
     <use xlink:href="#CMR17-3a" transform="translate(1210.421445 0)scale(0.996264)"/>
     <use xlink:href="#CMR17-28" transform="translate(1275.778164 0)scale(0.996264)"/>
     <use xlink:href="#CMR17-21" transform="translate(1311.058932 0)scale(0.996264)"/>
     <use xlink:href="#CMR17-72" transform="translate(1376.415651 0)scale(0.996264)"/>
     <use xlink:href="#CMR17-65" transform="translate(1411.696419 0)scale(0.996264)"/>
     <use xlink:href="#CMR17-70" transform="translate(1452.182079 0)scale(0.996264)"/>
     <use xlink:href="#CMR17-6f" transform="translate(1505.679888 0)scale(0.996264)"/>
     <use xlink:href="#CMR17-73" transform="translate(1551.370365 0)scale(0.996264)"/>
     <use xlink:href="#CMR17-77" transform="translate(1617.247669 0)scale(0.996264)"/>
     <use xlink:href="#CMR17-69" transform="translate(1683.757549 0)scale(0.996264)"/>
     <use xlink:href="#CMR17-74" transform="translate(1708.628608 0)scale(0.996264)"/>
     <use xlink:href="#CMR17-68" transform="translate(1743.909375 0)scale(0.996264)"/>
     <use xlink:href="#CMR17-3c" transform="translate(1824.880712 0)scale(0.996264)"/>
     <use xlink:href="#CMR17-31" transform="translate(1879.827736 0)scale(0.996264)"/>
     <use xlink:href="#CMR17-30" transform="translate(1925.518214 0)scale(0.996264)"/>
     <use xlink:href="#CMR17-69" transform="translate(2001.284657 0)scale(0.996264)"/>
     <use xlink:href="#CMR17-73" transform="translate(2026.155716 0)scale(0.996264)"/>
     <use xlink:href="#CMR17-73" transform="translate(2061.957053 0)scale(0.996264)"/>
     <use xlink:href="#CMR17-75" transform="translate(2097.758391 0)scale(0.996264)"/>
     <use xlink:href="#CMR17-65" transform="translate(2148.653761 0)scale(0.996264)"/>
     <use xlink:href="#CMR17-29" transform="translate(2189.139421 0)scale(0.996264)"/>
    </g>
   </g>
  </g>
 </g>
 <defs>
  <clipPath id="p7710d928d9">
   <rect x="54" y="34.56" width="334.8" height="217.44"/>
  </clipPath>
 </defs>
</svg>
